<svg width="1886" height="435" viewBox="0 0 1886 435" fill="none" xmlns="http://www.w3.org/2000/svg">
<path d="M1129.9 333C1114.5 333 1100.2 330.3 1087 324.9C1073.8 319.5 1062.2 312 1052.2 302.4C1042.2 292.8 1034.4 281.5 1028.8 268.5C1023.4 255.3 1020.7 241 1020.7 225.6C1020.7 210.2 1023.4 196 1028.8 183C1034.4 169.8 1042 158.4 1051.6 148.8C1061.4 139.2 1072.8 131.8 1085.8 126.6C1099 121.2 1113.1 118.5 1128.1 118.5C1138.7 118.5 1149.1 120 1159.3 123C1169.7 126 1179.1 130.2 1187.5 135.6C1195.9 141 1202.7 147.1 1207.9 153.9L1192.3 169.8C1186.7 164 1180.4 159 1173.4 154.8C1166.4 150.6 1159 147.3 1151.2 144.9C1143.6 142.5 1136 141.3 1128.4 141.3C1116.6 141.3 1105.6 143.4 1095.4 147.6C1085.4 151.8 1076.6 157.7 1069 165.3C1061.4 172.7 1055.5 181.6 1051.3 192C1047.1 202.2 1045 213.4 1045 225.6C1045 237.4 1047.1 248.5 1051.3 258.9C1055.7 269.1 1061.8 278.1 1069.6 285.9C1077.6 293.5 1086.8 299.4 1097.2 303.6C1107.6 307.8 1118.8 309.9 1130.8 309.9C1140.2 309.9 1149 308.5 1157.2 305.7C1165.6 302.9 1172.9 299 1179.1 294C1185.3 288.8 1190.1 282.8 1193.5 276C1196.9 269.2 1198.6 261.9 1198.6 254.1V243.6L1203.4 249.6H1129.6V226.5H1222C1222.2 228.1 1222.4 230 1222.6 232.2C1222.8 234.2 1222.9 236.3 1222.9 238.5C1223.1 240.5 1223.2 242.4 1223.2 244.2C1223.2 257.2 1220.8 269.2 1216 280.2C1211.2 291 1204.5 300.4 1195.9 308.4C1187.5 316.2 1177.7 322.3 1166.5 326.7C1155.3 330.9 1143.1 333 1129.9 333ZM1257 330V173.4H1279.5L1280.1 215.1L1277.7 209.4C1279.9 202.4 1283.4 195.9 1288.2 189.9C1293.2 183.9 1299.1 179.1 1305.9 175.5C1312.7 171.9 1320.2 170.1 1328.4 170.1C1331.8 170.1 1335 170.4 1338 171C1341 171.4 1343.5 172 1345.5 172.8L1339.2 198C1336.6 196.8 1333.9 196 1331.1 195.6C1328.5 195 1326 194.7 1323.6 194.7C1316.8 194.7 1310.7 195.9 1305.3 198.3C1299.9 200.7 1295.3 204.1 1291.5 208.5C1287.7 212.7 1284.8 217.6 1282.8 223.2C1280.8 228.8 1279.8 234.8 1279.8 241.2V330H1257ZM1423.38 333C1409.78 333 1397.48 329.5 1386.48 322.5C1375.48 315.3 1366.78 305.6 1360.38 293.4C1353.98 281 1350.78 267 1350.78 251.4C1350.78 235.6 1354.08 221.6 1360.68 209.4C1367.28 197.2 1376.08 187.6 1387.08 180.6C1398.28 173.6 1410.78 170.1 1424.58 170.1C1432.78 170.1 1440.38 171.3 1447.38 173.7C1454.38 176.1 1460.58 179.5 1465.98 183.9C1471.58 188.1 1476.18 193.1 1479.78 198.9C1483.58 204.5 1486.18 210.6 1487.58 217.2L1480.98 213.9L1481.88 173.4H1504.38V330H1481.58V291.6L1487.58 287.7C1486.18 293.7 1483.48 299.5 1479.48 305.1C1475.48 310.5 1470.58 315.3 1464.78 319.5C1459.18 323.7 1452.78 327 1445.58 329.4C1438.58 331.8 1431.18 333 1423.38 333ZM1428.48 311.4C1438.88 311.4 1448.18 308.9 1456.38 303.9C1464.58 298.7 1470.98 291.6 1475.58 282.6C1480.38 273.4 1482.78 263 1482.78 251.4C1482.78 239.8 1480.38 229.5 1475.58 220.5C1470.98 211.5 1464.58 204.4 1456.38 199.2C1448.18 194 1438.88 191.4 1428.48 191.4C1417.88 191.4 1408.48 194 1400.28 199.2C1392.28 204.4 1385.88 211.5 1381.08 220.5C1376.48 229.5 1374.18 239.8 1374.18 251.4C1374.18 262.8 1376.48 273.1 1381.08 282.3C1385.68 291.3 1392.08 298.4 1400.28 303.6C1408.48 308.8 1417.88 311.4 1428.48 311.4ZM1548.21 396V173.4H1570.71L1571.31 211.5L1567.11 212.1C1568.91 204.5 1572.81 197.6 1578.81 191.4C1584.81 185 1592.11 179.9 1600.71 176.1C1609.31 172.3 1618.41 170.4 1628.01 170.4C1642.01 170.4 1654.51 173.9 1665.51 180.9C1676.71 187.9 1685.61 197.5 1692.21 209.7C1698.81 221.9 1702.11 235.9 1702.11 251.7C1702.11 267.3 1698.91 281.2 1692.51 293.4C1686.11 305.6 1677.31 315.3 1666.11 322.5C1654.91 329.5 1642.31 333 1628.31 333C1618.51 333 1609.21 331 1600.41 327C1591.61 323 1584.11 317.8 1577.91 311.4C1571.71 304.8 1567.61 297.7 1565.61 290.1H1571.01V396H1548.21ZM1624.71 311.4C1635.31 311.4 1644.71 308.8 1652.91 303.6C1661.11 298.4 1667.61 291.3 1672.41 282.3C1677.21 273.3 1679.61 263.1 1679.61 251.7C1679.61 240.1 1677.21 229.8 1672.41 220.8C1667.61 211.8 1661.11 204.7 1652.91 199.5C1644.71 194.3 1635.31 191.7 1624.71 191.7C1614.11 191.7 1604.61 194.3 1596.21 199.5C1588.01 204.5 1581.51 211.5 1576.71 220.5C1571.91 229.5 1569.51 239.8 1569.51 251.4C1569.51 263 1571.91 273.3 1576.71 282.3C1581.51 291.3 1588.01 298.4 1596.21 303.6C1604.61 308.8 1614.11 311.4 1624.71 311.4ZM1734.83 330V108H1757.33V207.6L1752.83 212.1C1755.03 203.9 1759.13 196.7 1765.13 190.5C1771.13 184.1 1778.13 179.1 1786.13 175.5C1794.33 171.9 1802.63 170.1 1811.03 170.1C1823.03 170.1 1833.03 172.4 1841.03 177C1849.03 181.6 1854.93 188.7 1858.73 198.3C1862.73 207.9 1864.73 220.1 1864.73 234.9V330H1841.93V236.1C1841.93 225.7 1840.53 217.2 1837.73 210.6C1835.13 203.8 1831.03 198.8 1825.43 195.6C1819.83 192.4 1812.83 190.9 1804.43 191.1C1797.83 191.1 1791.63 192.3 1785.83 194.7C1780.03 196.9 1775.03 200 1770.83 204C1766.63 208 1763.33 212.6 1760.93 217.8C1758.53 223 1757.33 228.6 1757.33 234.6V330H1746.23C1744.83 330 1743.23 330 1741.43 330C1739.63 330 1737.43 330 1734.83 330Z" fill="white"/>
<rect width="967" height="435" rx="100" fill="white"/>
<path d="M229.5 175.462C229.5 193.652 220.554 222.303 206.2 251.924C194.476 276.115 179.9 299.407 165.648 316.32C153.681 301.393 139.538 278.741 127.414 254.468C119.884 239.393 113.328 224.079 108.681 210.125C103.967 195.971 101.5 184.043 101.5 175.462C101.5 140.143 130.148 111.5 165.5 111.5C200.852 111.5 229.5 140.143 229.5 175.462Z" fill="#1A1A1A" stroke="#1A1A1A" stroke-width="25"/>
<circle cx="165.5" cy="176.5" r="19.5" fill="white" stroke="white" stroke-width="25"/>
<path d="M407.9 333C392.5 333 378.2 330.3 365 324.9C351.8 319.5 340.2 312 330.2 302.4C320.2 292.8 312.4 281.5 306.8 268.5C301.4 255.3 298.7 241 298.7 225.6C298.7 210.2 301.4 196 306.8 183C312.4 169.8 320 158.4 329.6 148.8C339.4 139.2 350.8 131.8 363.8 126.6C377 121.2 391.1 118.5 406.1 118.5C416.7 118.5 427.1 120 437.3 123C447.7 126 457.1 130.2 465.5 135.6C473.9 141 480.7 147.1 485.9 153.9L470.3 169.8C464.7 164 458.4 159 451.4 154.8C444.4 150.6 437 147.3 429.2 144.9C421.6 142.5 414 141.3 406.4 141.3C394.6 141.3 383.6 143.4 373.4 147.6C363.4 151.8 354.6 157.7 347 165.3C339.4 172.7 333.5 181.6 329.3 192C325.1 202.2 323 213.4 323 225.6C323 237.4 325.1 248.5 329.3 258.9C333.7 269.1 339.8 278.1 347.6 285.9C355.6 293.5 364.8 299.4 375.2 303.6C385.6 307.8 396.8 309.9 408.8 309.9C418.2 309.9 427 308.5 435.2 305.7C443.6 302.9 450.9 299 457.1 294C463.3 288.8 468.1 282.8 471.5 276C474.9 269.2 476.6 261.9 476.6 254.1V243.6L481.4 249.6H407.6V226.5H500C500.2 228.1 500.4 230 500.6 232.2C500.8 234.2 500.9 236.3 500.9 238.5C501.1 240.5 501.2 242.4 501.2 244.2C501.2 257.2 498.8 269.2 494 280.2C489.2 291 482.5 300.4 473.9 308.4C465.5 316.2 455.7 322.3 444.5 326.7C433.3 330.9 421.1 333 407.9 333ZM604.002 333C588.402 333 574.502 329.6 562.302 322.8C550.302 316 540.902 306.5 534.102 294.3C527.302 282.1 523.902 268.1 523.902 252.3C523.902 240.1 525.802 229.1 529.602 219.3C533.402 209.3 538.702 200.6 545.502 193.2C552.502 185.8 560.802 180.1 570.402 176.1C580.002 171.9 590.402 169.8 601.602 169.8C612.202 169.8 621.802 171.7 630.402 175.5C639.202 179.3 646.702 184.6 652.902 191.4C659.302 198 664.102 205.9 667.302 215.1C670.502 224.3 671.902 234.4 671.502 245.4L671.202 255.9H540.702L537.402 237H654.102L648.702 242.1V234.9C648.302 227.7 646.202 220.8 642.402 214.2C638.602 207.4 633.202 201.9 626.202 197.7C619.402 193.5 611.202 191.4 601.602 191.4C590.402 191.4 580.702 193.7 572.502 198.3C564.302 202.7 558.002 209.3 553.602 218.1C549.202 226.9 547.002 237.8 547.002 250.8C547.002 263.2 549.402 274 554.202 283.2C559.002 292.2 565.802 299.2 574.602 304.2C583.602 309.2 594.402 311.7 607.002 311.7C614.402 311.7 621.702 310.5 628.902 308.1C636.302 305.5 644.402 300.5 653.202 293.1L664.902 309.3C660.302 313.9 654.802 318 648.402 321.6C642.002 325 635.002 327.8 627.402 330C619.802 332 612.002 333 604.002 333ZM772.759 333C757.159 333 743.259 329.5 731.059 322.5C719.059 315.5 709.559 305.8 702.559 293.4C695.759 281 692.359 266.9 692.359 251.1C692.359 235.5 695.759 221.6 702.559 209.4C709.559 197.2 719.059 187.6 731.059 180.6C743.259 173.6 757.159 170.1 772.759 170.1C788.159 170.1 801.859 173.6 813.859 180.6C826.059 187.6 835.559 197.2 842.359 209.4C849.359 221.6 852.859 235.5 852.859 251.1C852.859 266.9 849.359 281 842.359 293.4C835.559 305.8 826.059 315.5 813.859 322.5C801.859 329.5 788.159 333 772.759 333ZM772.759 311.7C783.759 311.7 793.559 309.1 802.159 303.9C810.759 298.5 817.459 291.3 822.259 282.3C827.059 273.1 829.459 262.7 829.459 251.1C829.459 239.5 827.059 229.2 822.259 220.2C817.459 211.2 810.759 204.2 802.159 199.2C793.559 194 783.759 191.4 772.759 191.4C761.759 191.4 751.859 194 743.059 199.2C734.459 204.2 727.659 211.3 722.659 220.5C717.859 229.5 715.559 239.7 715.759 251.1C715.559 262.7 717.859 273.1 722.659 282.3C727.659 291.3 734.459 298.5 743.059 303.9C751.859 309.1 761.759 311.7 772.759 311.7Z" fill="#1A1A1A"/>
</svg>
